<?xml version="1.0" encoding="UTF-8"?>
<svg version="1.1" xmlns="http://www.w3.org/2000/svg" width="268" height="284">
<path d="M0 0 C2.17485438 15.59778378 2.17485438 15.59778378 -0.3984375 20.859375 C-1.75462708 22.41390061 -3.16071895 23.92585539 -4.60546875 25.3984375 C-7.54568538 28.59286536 -9.57959306 31.97242411 -11.6875 35.75 C-12.06559814 36.42691895 -12.44369629 37.10383789 -12.83325195 37.80126953 C-16.33626894 44.28435036 -18.81420579 50.97031006 -21 58 C-17.78276013 62.75149538 -14.32957831 66.64580541 -9 69 C0.4865614 70.72014298 10.39677172 70.32156207 20 70 C20.02693575 72.12493141 20.04636628 74.24995912 20.0625 76.375 C20.07410156 77.55835938 20.08570313 78.74171875 20.09765625 79.9609375 C20 83 20 83 19 85 C18.34 85 17.68 85 17 85 C16.72760498 85.58628174 16.45520996 86.17256348 16.17456055 86.77661133 C15.02301591 88.95643194 13.77490706 90.67816489 12.20703125 92.57421875 C11.66199951 93.23808594 11.11696777 93.90195313 10.55541992 94.5859375 C9.98025635 95.27945313 9.40509277 95.97296875 8.8125 96.6875 C7.63731307 98.11790839 6.46282916 99.54889467 5.2890625 100.98046875 C4.44069824 102.01373291 4.44069824 102.01373291 3.57519531 103.06787109 C0.64797583 106.65838798 -2.18803353 110.31888025 -5 114 C-9.12417063 112.3383196 -12.06554039 109.37661982 -15.25 106.375 C-15.80429687 105.859375 -16.35859375 105.34375 -16.9296875 104.8125 C-18.2902712 103.54574965 -19.64565837 102.27342185 -21 101 C-18.92954346 110.32283785 -16.72514767 118.59973748 -12 127 C-9.69 124.69 -7.38 122.38 -5 120 C-0.93332158 122.20096216 1.93991868 124.78779539 5.125 128.125 C9.72221649 132.87601197 14.53459917 136.99714571 19.78515625 141.02734375 C21.93756792 142.94439471 22.95015219 144.34868943 24 147 C22.38050958 148.50594681 20.75424026 150.00460668 19.125 151.5 C18.22007813 152.3353125 17.31515625 153.170625 16.3828125 154.03125 C14 156 14 156 12 156 C24.44989983 170.1671274 45.29337242 176.16473609 63.4375 177.8125 C82.60421773 178.73643409 99.3997969 172.68013905 115 162 C116.00654286 161.00658596 117.00969238 160.00959933 118 159 C118.66 159 119.32 159 120 159 C119.29875 158.29875 118.5975 157.5975 117.875 156.875 C117.42640625 156.41867188 116.9778125 155.96234375 116.515625 155.4921875 C115.47300304 154.46568856 114.39736976 153.47200745 113.296875 152.5078125 C111.625 151 111.625 151 109 148 C108.91515349 142.71123443 112.80371061 138.96969961 115.9375 135.0625 C117.12460742 133.55512448 118.30947288 132.04598089 119.4921875 130.53515625 C120.08354492 129.77992676 120.67490234 129.02469727 121.28417969 128.24658203 C124.26373205 124.34535255 127.04247758 120.29641654 129.75170898 116.20336914 C132.12363712 112.75053635 132.73057755 112.06735561 137 111 C138.98 114.96 138.98 114.96 141 119 C143.3479743 111.66258031 143.19355213 104.65606218 143 97 C141.68 99.31 140.36 101.62 139 104 C134.93190425 102.63438482 132.45803247 100.83429873 129.375 97.875 C125.75777173 94.44815217 122.18187196 91.8440895 117.9375 89.25 C114.4995147 86.85456313 113.214221 85.74933272 112.05078125 81.6796875 C111.34292763 73.31414474 111.34292763 73.31414474 113 70 C121.91 70 130.82 70 140 70 C140 69.34 140 68.68 140 68 C138.865625 68.020625 137.73125 68.04125 136.5625 68.0625 C133 68 133 68 132 67 C131.69667937 64.33675729 131.45174447 61.69083254 131.24609375 59.01953125 C131.18092056 58.21392258 131.11574738 57.4083139 131.04859924 56.57829285 C130.91117641 54.867716 130.77598414 53.15695874 130.64282227 51.44604492 C130.43968554 48.84053256 130.22923467 46.23569196 130.01757812 43.63085938 C129.88497896 41.96878486 129.75280413 40.30667643 129.62109375 38.64453125 C129.55860947 37.86930618 129.49612518 37.09408112 129.43174744 36.29536438 C129.11479013 32.18474795 128.9348705 28.12691651 129 24 C132.15248836 24.27475816 133.07263793 25.07634394 135.296875 27.4140625 C136.12912574 28.47310663 136.94597282 29.54437238 137.75 30.625 C138.18538086 31.20475586 138.62076172 31.78451172 139.06933594 32.38183594 C156.76774348 56.59594648 163.68078116 86.93620492 159.22558594 116.56396484 C157.61954215 125.43299496 154.49152047 133.7310794 151 142 C150.60941406 142.92554688 150.21882812 143.85109375 149.81640625 144.8046875 C146.53805933 151.90588186 141.83851815 157.89548964 137 164 C136.50757813 164.66 136.01515625 165.32 135.5078125 166 C125.62994981 178.62496059 109.93384416 186.33627458 95 191 C94.05253906 191.32226562 93.10507813 191.64453125 92.12890625 191.9765625 C68.29738788 198.89643351 41.73985826 193.3823726 20.05859375 182.52734375 C10.5566366 177.05189814 0.54122884 170.00701062 -7 162 C-7 161.34 -7 160.68 -7 160 C-7.66 160 -8.32 160 -9 160 C-32.10079115 136.06894786 -40.6058007 105.66882281 -40.28125 73.171875 C-39.58713291 46.72601401 -26.83815518 23.95729327 -8.6875 5.375 C-7.9135791 4.57425049 -7.9135791 4.57425049 -7.12402344 3.75732422 C-3.35804464 0 -3.35804464 0 0 0 Z " fill="#FCFCFC" transform="translate(73,74)"/>
<path d="M0 0 C6.0258371 0.06752539 11.87234655 0.79866405 17.8203125 1.72265625 C19.36912109 1.92084961 19.36912109 1.92084961 20.94921875 2.12304688 C28.46320311 3.29561131 32.48038487 5.71540531 37.6953125 11.16015625 C38.55898437 11.91941406 39.42265625 12.67867187 40.3125 13.4609375 C41.91808003 14.89151486 43.50765929 16.34013868 45.0859375 17.80078125 C47.68193407 20.20477863 47.68193407 20.20477863 50.5546875 22.39453125 C55.35731811 26.43742369 58.21218778 29.59979386 58.83544922 36.05981445 C58.97585603 42.28620522 57.98958289 46.78372967 53.6953125 51.53515625 C52.03795916 53.08683076 50.37142429 54.62876369 48.6953125 56.16015625 C47.39147956 57.71642791 46.1200553 59.30043825 44.8828125 60.91015625 C43.86767578 62.12058594 43.86767578 62.12058594 42.83203125 63.35546875 C41.15842466 65.55226862 39.9433823 67.49942624 38.65234375 69.90234375 C35.98322261 74.35385149 33.48026269 77.8810426 28.6953125 80.16015625 C19.49780649 81.76460185 3.15412341 83.38956171 -5.3046875 79.16015625 C-5.3046875 78.50015625 -5.3046875 77.84015625 -5.3046875 77.16015625 C-5.9646875 77.16015625 -6.6246875 77.16015625 -7.3046875 77.16015625 C-8.99609375 75.515625 -8.99609375 75.515625 -10.8671875 73.34765625 C-11.48722656 72.63996094 -12.10726562 71.93226563 -12.74609375 71.203125 C-14.3046875 69.16015625 -14.3046875 69.16015625 -15.3046875 66.16015625 C-15.9646875 66.16015625 -16.6246875 66.16015625 -17.3046875 66.16015625 C-19.66598867 63.54855716 -21.79793118 60.78800194 -23.97265625 58.01953125 C-25.84504442 55.72373872 -27.70854731 53.84658797 -29.8671875 51.84765625 C-33.5069399 47.70378302 -32.84852705 42.70471235 -32.7109375 37.46484375 C-32.02654132 31.89754408 -30.08321613 28.29292194 -26.3046875 24.16015625 C-25.6446875 24.16015625 -24.9846875 24.16015625 -24.3046875 24.16015625 C-23.95470703 23.33257812 -23.95470703 23.33257812 -23.59765625 22.48828125 C-21.96449466 19.54760358 -19.91129543 17.36938374 -17.6171875 14.91015625 C-13.8752829 10.86456084 -10.19267854 6.78395769 -6.58203125 2.62109375 C-4.29966359 0.01067936 -3.52686439 0.01091364 0 0 Z " fill="#FDFDFD" transform="translate(126.3046875,112.83984375)"/>
<path d="M0 0 C1.64959717 0.00664673 1.64959717 0.00664673 3.33251953 0.01342773 C5.1672583 0.04545288 5.1672583 0.04545288 7.0390625 0.078125 C8.34601074 0.08980713 9.65295898 0.10148926 10.99951172 0.11352539 C14.94053001 0.15189378 18.88090238 0.2146957 22.8215332 0.28131104 C25.93761244 0.33263013 29.05374528 0.3783284 32.16992188 0.42333984 C39.37645621 0.52852577 46.58277827 0.64457595 53.7890625 0.765625 C55.54606476 0.79468933 55.54606476 0.79468933 57.33856201 0.82434082 C64.06363649 0.93886121 70.78752031 1.07713861 77.51135254 1.25018311 C79.5999946 1.30181891 81.68879725 1.34734857 83.77770996 1.38653564 C86.6755769 1.44329124 89.57169964 1.52484848 92.46875 1.61328125 C93.74070724 1.63121986 93.74070724 1.63121986 95.0383606 1.64952087 C100.3148006 1.8459486 103.58006804 2.68565377 107.6640625 6.328125 C111.62588339 11.77886198 111.47756083 18.31226319 111.9453125 24.81640625 C112.09351944 26.67046585 112.09351944 26.67046585 112.24472046 28.5619812 C112.50884269 31.89847452 112.76186699 35.23543466 113.00936127 38.57317734 C113.2676101 42.02444875 113.53916007 45.4746744 113.80908203 48.92504883 C114.29186519 55.12327111 114.76183022 61.32238729 115.22632408 67.52200413 C115.62280559 72.80453213 116.03342718 78.08586762 116.44854736 83.36695862 C116.7494944 87.20460987 117.04479802 91.04267386 117.33764648 94.88095093 C117.47155224 96.6325397 117.60679873 98.38402651 117.7434082 100.13540649 C117.92852281 102.52607639 118.10614291 104.91717297 118.28125 107.30859375 C118.33614594 108.00145477 118.39104187 108.6943158 118.44760132 109.40817261 C118.77874664 114.09875672 118.77874664 114.09875672 117.6640625 116.328125 C113.3740625 116.328125 109.0840625 116.328125 104.6640625 116.328125 C102.53229553 107.17912456 101.86988085 98.01579079 101.19140625 88.67578125 C101.06270131 86.96760381 100.9334235 85.25946945 100.80360413 83.55137634 C100.46490136 79.07624681 100.13341377 74.60061286 99.8036499 70.12481689 C99.40314569 64.70609534 98.99445724 59.28798627 98.58664036 53.86981106 C98.26913687 49.65010999 97.95290114 45.43032872 97.64085388 41.21022034 C97.04984965 33.24291783 96.4305246 25.28089327 95.6640625 17.328125 C80.19147349 16.74734813 64.72427989 16.26297807 49.2421875 16.046875 C48.56939255 16.03732788 47.8965976 16.02778076 47.20341492 16.01794434 C41.02110564 15.93096535 34.83870632 15.8516192 28.65625 15.77587891 C25.87518212 15.74157627 23.09416934 15.70472566 20.31317139 15.66516113 C17.73351495 15.62869138 15.15379815 15.59621548 12.57403564 15.5682373 C10.85757843 15.54316101 10.85757843 15.54316101 9.10644531 15.51757812 C7.59670135 15.49878601 7.59670135 15.49878601 6.05645752 15.47961426 C3.6640625 15.328125 3.6640625 15.328125 1.6640625 14.328125 C1.73399414 15.08351563 1.80392578 15.83890625 1.87597656 16.6171875 C3.86560941 38.47116117 5.384465 60.35243637 6.77366638 82.25146484 C6.91441193 84.45860475 7.05732919 86.66559466 7.20080566 88.87255859 C7.42883276 92.38624128 7.65090174 95.90025125 7.86828613 99.414608 C7.99006966 101.36452796 8.11705923 103.31412054 8.24414062 105.26370239 C8.3147168 106.42981049 8.38529297 107.59591858 8.45800781 108.79736328 C8.52223938 109.82129181 8.58647095 110.84522034 8.65264893 111.900177 C8.6640625 114.328125 8.6640625 114.328125 7.6640625 116.328125 C5.70580377 116.35507351 3.74744024 116.37449718 1.7890625 116.390625 C0.69851562 116.40222656 -0.39203125 116.41382813 -1.515625 116.42578125 C-4.3359375 116.328125 -4.3359375 116.328125 -6.3359375 115.328125 C-6.8049686 112.64031145 -7.14349184 110.03837288 -7.40234375 107.328125 C-7.48561417 106.51649902 -7.56888458 105.70487305 -7.65467834 104.86865234 C-8.38696171 97.4409045 -8.82742702 90.00854359 -9.17047119 82.55410767 C-9.94691265 65.76856626 -11.09242477 49.01775568 -12.37084961 32.26367188 C-14.04397552 10.07958747 -14.04397552 10.07958747 -12.1484375 5.390625 C-8.63165727 1.38877164 -5.27805894 -0.05347204 0 0 Z " fill="#FAFAFA" transform="translate(85.3359375,26.671875)"/>
<path d="M0 0 C3.33997971 0.00696555 6.6746723 0.06135984 10.01367188 0.13085938 C12.1520744 0.13278413 14.25384384 0.01283752 16.38671875 -0.1328125 C20.6494095 -0.31567196 24.06117591 -0.10215489 28.18359375 1.1328125 C32.07032583 4.72256907 34.45201311 8.58851288 36.99853516 13.18212891 C38.20832248 15.1735176 39.5499314 16.85068876 41.0703125 18.61328125 C43.93187048 22.06321084 45.84761175 24.79778127 47.18359375 29.1328125 C46.03009923 36.04265775 41.49498613 43.57360023 36.18359375 48.1328125 C32.68655544 49.81706034 29.01900471 51.06230174 25.37109375 52.3828125 C24.38560547 52.75921875 23.40011719 53.135625 22.38476562 53.5234375 C12.95621277 56.96812034 7.60346478 55.16193844 -1.37890625 51.3828125 C-2.21615234 51.04765625 -3.05339844 50.7125 -3.91601562 50.3671875 C-11.1569705 47.34008998 -15.35207322 43.57089656 -19.19140625 36.6328125 C-19.71476562 35.715 -20.238125 34.7971875 -20.77734375 33.8515625 C-22.03147442 30.57007775 -22.01849443 29.41884864 -20.81640625 26.1328125 C-19.33708786 23.65311213 -17.83545006 21.30905745 -16.19140625 18.9453125 C-15.7435376 18.28837402 -15.29566895 17.63143555 -14.83422852 16.95458984 C-13.50353496 15.00791817 -12.16157069 13.06950373 -10.81640625 11.1328125 C-10.09582031 10.08738281 -9.37523438 9.04195312 -8.6328125 7.96484375 C-3.20959672 0.15135408 -3.20959672 0.15135408 0 0 Z " fill="#FDFDFD" transform="translate(125.81640625,193.8671875)"/>
<path d="M0 0 C0.68622437 -0.00335861 1.37244873 -0.00671722 2.07946777 -0.01017761 C4.35988145 -0.01971663 6.64022188 -0.02163241 8.9206543 -0.02270508 C10.50148042 -0.02591639 12.08230623 -0.02928037 13.66313171 -0.03279114 C16.98294768 -0.03879034 20.30273759 -0.04063031 23.62255859 -0.04003906 C27.87641084 -0.03993757 32.13009567 -0.05357255 36.38390827 -0.07081127 C39.65157335 -0.0819332 42.91919804 -0.08395819 46.18688011 -0.08342934 C47.75496178 -0.08460983 49.32304448 -0.08903547 50.89110756 -0.0967617 C53.08637797 -0.10656245 55.28128622 -0.10368301 57.4765625 -0.09765625 C59.35067558 -0.09979378 59.35067558 -0.09979378 61.26264954 -0.10197449 C64.25339774 0.13130361 65.92468334 0.5674978 68.43237305 2.14526367 C67.77237305 3.79526367 67.11237305 5.44526367 66.43237305 7.14526367 C56.9489129 7.19154186 47.46549144 7.2271098 37.98194313 7.24888802 C33.57866054 7.25933885 29.17545502 7.27352163 24.7722168 7.29614258 C20.5252748 7.31782479 16.27840709 7.3298225 12.03141403 7.33501816 C10.40864263 7.33872225 8.78587543 7.34595513 7.16313553 7.35672379 C4.89553188 7.37117747 2.62823777 7.37324422 0.3605957 7.37231445 C-0.93180023 7.37675568 -2.22419617 7.3811969 -3.55575562 7.38577271 C-6.56762695 7.14526367 -6.56762695 7.14526367 -8.56762695 5.14526367 C-7.68762503 -0.66274901 -5.48506401 0.01676631 0 0 Z " fill="#EBEBEB" transform="translate(106.567626953125,78.854736328125)"/>
<path d="M0 0 C1.91208252 -0.00472824 1.91208252 -0.00472824 3.86279297 -0.009552 C5.2600915 -0.00776217 6.65738971 -0.0057112 8.0546875 -0.00341797 C9.48193376 -0.00409132 10.90917991 -0.00506161 12.33642578 -0.00631714 C15.32911266 -0.00779262 18.32176971 -0.00564434 21.31445312 -0.00097656 C25.15477879 0.00472065 28.99503457 0.00144084 32.83535767 -0.00454903 C35.78296436 -0.00815866 38.73055443 -0.0070142 41.67816162 -0.00442123 C43.09438078 -0.00375308 44.51060144 -0.00457651 45.92681885 -0.00690079 C47.90433728 -0.00943384 49.88186099 -0.00489004 51.859375 0 C53.54909424 0.00119339 53.54909424 0.00119339 55.27294922 0.00241089 C57.9296875 0.12939453 57.9296875 0.12939453 59.9296875 1.12939453 C59.5996875 2.77939453 59.2696875 4.42939453 58.9296875 6.12939453 C50.63713928 6.30636917 42.34447537 6.47232361 34.05143261 6.6241703 C30.20074019 6.69502425 26.3501999 6.76968793 22.49975586 6.85302734 C18.78462382 6.93329837 15.06942517 7.00360227 11.35396767 7.06696701 C9.93571321 7.09291243 8.51752002 7.12246316 7.09941673 7.15565872 C5.11489596 7.20150036 3.13006781 7.23339635 1.14526367 7.26464844 C0.01497238 7.28685455 -1.11531891 7.30906067 -2.27986145 7.3319397 C-5.0703125 7.12939453 -5.0703125 7.12939453 -8.0703125 5.12939453 C-8.0703125 3.80939453 -8.0703125 2.48939453 -8.0703125 1.12939453 C-5.3114558 -0.25003382 -3.08745615 0.00218056 0 0 Z " fill="#F2F2F2" transform="translate(107.0703125,90.87060546875)"/>
<path d="M0 0 C1.03058281 0.00280975 1.03058281 0.00280975 2.08198547 0.00567627 C3.53704677 0.01239573 4.99209003 0.02630833 6.44702148 0.046875 C8.65040303 0.07776917 10.85306479 0.08782442 13.05664062 0.09375 C19.77086187 0.13720928 26.35423903 0.22804115 32.98828125 1.328125 C34.61328125 3.140625 34.61328125 3.140625 34.98828125 5.328125 C34.01171875 7.46484375 34.01171875 7.46484375 32.98828125 9.328125 C27.32829102 9.35279967 21.66833193 9.37097288 16.00830078 9.38305664 C14.08186294 9.38809287 12.15542894 9.39492212 10.22900391 9.40356445 C7.46385757 9.41566108 4.69876167 9.42136033 1.93359375 9.42578125 C0.63665085 9.43352318 0.63665085 9.43352318 -0.68649292 9.44142151 C-6.78397534 9.44199671 -6.78397534 9.44199671 -9.01171875 8.328125 C-9.82421875 5.953125 -9.82421875 5.953125 -10.01171875 3.328125 C-7.52415927 -0.56544636 -4.29279553 -0.03149082 0 0 Z " fill="#F7F7F7" transform="translate(105.01171875,52.671875)"/>
<path d="M0 0 C19.8 0 39.6 0 60 0 C60.495 2.475 60.495 2.475 61 5 C59.33757708 6.66242292 57.32845462 6.18431752 55.04052734 6.23706055 C53.98207611 6.26346115 52.92362488 6.28986176 51.83309937 6.31706238 C50.67903595 6.34004898 49.52497253 6.36303558 48.3359375 6.38671875 C46.56508286 6.42500542 46.56508286 6.42500542 44.75845337 6.46406555 C42.25162014 6.51620294 39.74472899 6.56561386 37.23779297 6.61254883 C33.41209961 6.68678014 29.5870305 6.77754448 25.76171875 6.86914062 C23.32814516 6.91768785 20.89455158 6.96524545 18.4609375 7.01171875 C17.31901947 7.04077805 16.17710144 7.06983734 15.00057983 7.09977722 C9.23839759 7.19040128 4.42894333 6.99359995 -1 5 C-0.67 3.35 -0.34 1.7 0 0 Z " fill="#F3F3F3" transform="translate(101,103)"/>
<path d="M0 0 C0.97425934 0.01371643 1.94851868 0.02743286 2.95230103 0.04156494 C4.51964493 0.0804483 4.51964493 0.0804483 6.11865234 0.12011719 C7.19585541 0.14039978 8.27305847 0.16068237 9.38290405 0.18157959 C11.65755811 0.22712172 13.9321127 0.27788891 16.20654297 0.33349609 C19.69794594 0.4168336 23.18927071 0.47859316 26.68115234 0.53808594 C28.88951351 0.5849697 31.09784856 0.63310393 33.30615234 0.68261719 C34.87956894 0.70935516 34.87956894 0.70935516 36.48477173 0.7366333 C37.45272675 0.76295837 38.42068176 0.78928345 39.41796875 0.81640625 C40.69892929 0.84544037 40.69892929 0.84544037 42.00576782 0.87506104 C44.07958984 1.16699219 44.07958984 1.16699219 46.07958984 3.16699219 C45.74958984 4.48699219 45.41958984 5.80699219 45.07958984 7.16699219 C27.58958984 7.16699219 10.09958984 7.16699219 -7.92041016 7.16699219 C-8.25041016 5.51699219 -8.58041016 3.86699219 -8.92041016 2.16699219 C-5.80115804 0.34321482 -3.59569766 -0.06797352 0 0 Z " fill="#F2F2F2" transform="translate(106.92041015625,66.8330078125)"/>
<path d="" fill="#000000" transform="translate(0,0)"/>
<path d="" fill="#000000" transform="translate(0,0)"/>
<path d="" fill="#000000" transform="translate(0,0)"/>
<path d="" fill="#000000" transform="translate(0,0)"/>
<path d="" fill="#000000" transform="translate(0,0)"/>
<path d="" fill="#000000" transform="translate(0,0)"/>
<path d="" fill="#000000" transform="translate(0,0)"/>
<path d="" fill="#000000" transform="translate(0,0)"/>
<path d="" fill="#000000" transform="translate(0,0)"/>
<path d="" fill="#000000" transform="translate(0,0)"/>
<path d="" fill="#000000" transform="translate(0,0)"/>
<path d="" fill="#000000" transform="translate(0,0)"/>
</svg>
