<svg width="800" height="800" viewBox="0 0 800 800" fill="none" xmlns="http://www.w3.org/2000/svg">
<g clip-path="url(#clip0_31_133)">
<path d="M433.996 2.15387e-05C500.749 -0.000634497 554.433 -0.0176896 596.618 5.65494C640.248 11.5215 676.85 24.0539 705.902 53.1075H705.903C734.495 81.7075 747.083 117.627 753.067 160.365L753.348 162.405V162.406C759.018 204.596 759 258.289 759 325.051V474.949C759 541.711 759.018 595.402 753.348 637.592V637.593C747.48 681.229 734.95 717.838 705.903 746.893H705.902C676.85 775.944 640.248 788.477 596.619 794.346C554.435 800.015 500.749 800 433.996 800H357.004C290.252 800 236.566 800.015 194.382 794.346C151.434 788.568 115.296 776.335 86.4671 748.243L85.0994 746.893C56.0503 717.838 43.5199 681.23 37.6541 637.593C31.9823 595.403 31.9993 541.711 32 474.949V325.051C31.9993 258.289 31.9823 204.596 37.6541 162.405C43.5199 118.768 56.0503 82.1613 85.0994 53.1075C114.15 24.0538 150.75 11.5215 194.381 5.65494C236.566 -0.0176896 290.251 -0.000634497 357.004 2.15387e-05H433.996ZM359.059 71.0706C290.427 71.0706 242.152 71.1435 205.583 75.8623L203.85 76.0908C168.1 80.8984 148.993 89.7133 135.347 103.362C121.913 116.798 113.163 135.524 108.309 170.211L108.08 171.875C103.136 208.656 103.06 257.375 103.06 327.108V472.893C103.06 542.624 103.136 591.343 108.08 628.125L108.309 629.789C113.163 664.473 121.914 683.202 135.347 696.636C148.78 710.072 167.504 718.825 202.186 723.679L203.85 723.906C240.625 728.853 289.337 728.929 359.059 728.929H431.941C501.662 728.929 550.375 728.853 587.151 723.906C622.897 719.102 642.007 710.286 655.653 696.637C669.299 682.989 678.115 663.878 682.919 628.126C687.864 591.345 687.94 542.624 687.94 472.893V327.108C687.94 258.464 687.867 210.183 683.147 173.608L682.919 171.875C678.115 136.12 669.299 117.011 655.653 103.362C642.22 89.9266 623.495 81.175 588.815 76.3193L587.153 76.0908C550.376 71.1461 501.662 71.0706 431.941 71.0706H359.059ZM431.941 437.358C451.563 437.358 467.471 453.268 467.471 472.893C467.471 492.517 451.563 508.428 431.941 508.428H249.736C230.114 508.428 214.206 492.517 214.206 472.893C214.206 453.268 230.114 437.358 249.736 437.358H431.941ZM541.264 291.572C560.887 291.572 576.794 307.481 576.794 327.108C576.794 346.732 560.887 362.643 541.264 362.643H249.736C230.114 362.643 214.206 346.732 214.206 327.108C214.206 307.481 230.114 291.572 249.736 291.572H541.264Z" fill="#1C274C" stroke="#1C274C" stroke-width="15"/>
</g>
<defs>
<clipPath id="clip0_31_133">
<rect width="800" height="800" fill="white"/>
</clipPath>
</defs>
</svg>
